<?xml version="1.0" encoding="utf-8"?>
<!DOCTYPE svg PUBLIC "-//W3C//DTD SVG 1.0//EN" "http://www.w3.org/TR/2001/REC-SVG-20010904/DTD/svg10.dtd">
<svg version="1.0" xmlns="http://www.w3.org/2000/svg" viewBox="230 55 710 465" width="100%" height="100%" preserveAspectRatio="xMidYMid meet">
 <g fill="none">
  <path d="M0 326.51 l0 -326.51 585 0 585 0 0 326.51 0 326.51 -585 0 -585 0 0 -326.51z m444.53 162.66 c-0.85 -0.17 -2.38 -0.17 -3.40 0 -1.11 0.17 -0.43 0.34 1.45 0.34 1.87 0.09 2.72 -0.09 1.96 -0.34z m27.80 -0.17 l-6.80 -0.51 -0.43 -11.48 -0.51 -11.48 -0.17 12.16 -0.17 12.07 7.48 -0.17 7.40 -0.17 -6.80 -0.43z m29.16 0.17 c-0.85 -0.17 -2.38 -0.17 -3.40 0 -1.11 0.17 -0.43 0.34 1.45 0.34 1.87 0.09 2.72 -0.09 1.96 -0.34z m24.66 0 c-1.28 -0.34 -1.53 -1.36 -1.53 -5.87 l0 -5.44 6.38 0 c3.49 0 6.38 -0.26 6.38 -0.60 0 -0.43 -2.89 -0.60 -6.38 -0.43 l-6.38 0.34 0 -5.10 c0 -3.32 0.34 -5.27 1.11 -5.53 0.51 -0.26 0.17 -0.51 -0.85 -0.51 -1.96 -0.09 -1.96 0 -1.96 11.82 l0 11.90 2.38 -0.09 c1.36 -0.09 1.70 -0.26 0.85 -0.51z m44.39 -3.15 c0 -4.34 0.94 -5.36 5.53 -5.87 3.06 -0.26 2.98 -0.34 -1.02 -0.43 l-4.51 -0.17 0 -6.38 0 -6.29 4.93 -0.34 4.85 -0.26 -5.70 -0.17 -5.78 -0.17 0 11.90 c0 7.40 0.34 11.90 0.85 11.90 0.51 0 0.85 -1.70 0.85 -3.74z m28.91 -8.08 c0 -7.06 -0.34 -12.07 -0.85 -12.41 -0.51 -0.34 -0.85 3.83 -0.85 11.82 0 7.74 0.34 12.41 0.85 12.41 0.51 0 0.85 -4.51 0.85 -11.82z m22.53 11.05 l-6.80 -0.51 -0.43 -11.05 -0.51 -11.05 -0.17 11.73 -0.17 11.65 7.48 -0.17 7.40 -0.17 -6.80 -0.43z m59.52 -22.28 c2.72 -0.34 0.68 -0.51 -5.53 -0.51 -6.72 0 -8.33 0.17 -5.10 0.51 l4.68 0.51 0.43 11.48 0.34 11.48 0.51 -11.48 0.43 -11.48 4.25 -0.51z m24.40 22.45 l-7.06 -0.34 0.26 -5.27 0.26 -5.27 5.95 -0.51 5.95 -0.43 -6.12 -0.17 -6.21 -0.17 0 -5.10 0 -5.02 6.63 -0.34 6.55 -0.26 -7.23 0 -7.23 0.09 -0.26 11.73 -0.26 11.65 7.91 -0.17 7.91 -0.17 -7.06 -0.26z m-165.72 -3.91 c0.26 -0.68 0.09 -1.70 -0.34 -2.38 -0.51 -0.85 -0.77 -0.60 -0.77 1.19 0 2.47 0.43 2.98 1.11 1.19z m199.82 0 c0.26 -0.68 0.09 -1.70 -0.34 -2.38 -0.51 -0.85 -0.77 -0.60 -0.77 1.19 0 2.47 0.43 2.98 1.11 1.19z m-248.54 -10.37 c0 -5.36 -0.34 -8.93 -0.85 -8.93 -0.51 0 -0.85 2.89 -0.85 7.06 0 6.38 0.60 10.80 1.36 10.80 0.17 0 0.34 -4 0.34 -8.93z m17.86 -1.02 c0 -4.76 -0.34 -7.91 -0.85 -7.91 -0.51 0 -0.85 3.57 -0.85 9.18 0 6.21 0.26 8.67 0.85 7.82 0.43 -0.68 0.85 -4.85 0.85 -9.10z m147.95 8.93 c-0.09 -0.60 -0.60 -2.04 -1.28 -3.23 l-1.19 -2.13 -0.09 2.81 0 2.72 -5.44 0 c-5.02 0 -5.53 -0.17 -5.78 -1.87 -0.26 -1.79 -0.34 -1.79 -1.28 0.43 l-1.11 2.30 8.08 0 c5.95 0 8.08 -0.26 8.08 -1.02z m-225.41 -5.10 c0 -3.83 -0.17 -4.17 -0.85 -2.47 -0.77 1.87 -0.34 6.89 0.60 6.89 0.17 0 0.34 -2.04 0.26 -4.42z m153.31 -6.12 c-0.77 -1.53 -0.94 -1.36 -0.94 1.62 0 2.81 0.09 3.15 0.85 1.79 0.68 -1.02 0.68 -2.13 0.09 -3.40z m140.98 -0.26 c0 -1.79 -0.26 -2.04 -0.77 -1.19 -0.43 0.68 -0.60 1.70 -0.34 2.38 0.68 1.79 1.11 1.28 1.11 -1.19z m-73.98 0.26 c0 -1.36 -1.79 -4.76 -2.47 -4.76 -0.51 0 -1.45 1.19 -2.21 2.55 l-1.36 2.55 3.06 0 c1.62 0 2.98 -0.17 2.98 -0.34z m-38.52 -56.29 c4.25 -1.70 10.12 -7.65 12.24 -12.50 2.04 -4.34 2.04 -4.85 2.30 -37.84 l0.26 -33.50 -4.42 2.47 c-5.10 2.64 -13.26 10.29 -15.99 14.71 -1.70 2.89 -1.79 3.91 -1.79 35.97 l0 32.91 2.38 -0.51 c1.28 -0.34 3.49 -1.02 5.02 -1.70z m-77.55 -43.19 c11.90 -2.47 22.70 -6.12 28.31 -9.61 9.61 -5.87 13.52 -9.18 27.80 -23.21 24.40 -23.89 26.02 -24.66 54.42 -24.74 9.78 0 19.98 -0.34 22.53 -0.68 12.75 -1.79 25.34 -5.70 33.67 -10.29 26.10 -14.63 41.24 -47.28 35.71 -76.87 -6.04 -31.63 -24.91 -51.27 -57.82 -59.86 -7.91 -2.13 -9.86 -2.30 -25.17 -2.30 -14.37 0.09 -17.60 0.34 -24.23 2.04 -21.34 5.36 -33.67 12.07 -46.43 25.25 -15.22 15.73 -23.21 34.01 -25.42 58.50 -0.51 5.53 -0.77 10.20 -0.51 10.46 0.26 0.26 2.04 -0.43 4 -1.53 5.61 -3.15 8.25 -8.08 10.63 -20.41 3.74 -18.54 9.27 -29.16 21 -40.39 14.88 -14.28 36.48 -20.83 64.79 -19.64 19.90 0.85 35.03 7.23 45.49 19.13 4.17 4.68 9.61 15.56 11.65 23.13 2.13 7.82 2.13 29.68 0 37.41 -4.42 16.33 -14.63 29.25 -28.23 35.71 -9.01 4.34 -14.45 5.19 -34.01 5.53 -24.06 0.43 -27.46 0.94 -39.37 5.78 -7.57 3.15 -14.88 8.59 -25 18.79 -17.60 17.69 -25.34 23.55 -37.92 28.31 -9.35 3.57 -14.45 4.42 -25.51 4.51 -21.60 0 -35.54 -5.36 -49.15 -19.05 -12.07 -12.07 -18.88 -25.17 -23.04 -44.05 -2.21 -10.12 -2.21 -42.09 0 -52.55 5.27 -24.74 16.84 -43.96 32.99 -55.01 12.58 -8.67 34.27 -12.58 50.51 -9.18 7.14 1.53 16.50 5.95 21.51 10.29 2.04 1.70 3.74 2.98 3.91 2.81 0.17 -0.17 2.89 -3.57 6.04 -7.48 4.34 -5.44 5.44 -7.31 4.51 -7.91 -5.27 -3.57 -18.28 -8.76 -27.38 -10.88 -19.98 -4.85 -38.86 -2.30 -60.20 7.99 -10.80 5.27 -16.07 9.10 -25.34 18.45 -14.03 14.11 -23.21 32.31 -28.23 55.52 -2.47 11.39 -2.64 33.67 -0.43 45.15 7.40 38.18 29.34 65.73 61.39 76.95 14.11 4.93 30.27 6.38 42.51 3.91z m75.68 -83.07 c0.51 -0.34 4.17 -1.53 8.08 -2.55 4 -1.02 7.48 -2.30 7.82 -2.81 0.34 -0.51 0.68 -18.62 0.68 -40.22 l0 -39.37 -2.13 0 c-3.06 0 -9.69 3.57 -12.92 6.97 -1.53 1.53 -3.57 4.76 -4.68 7.06 -1.96 4.17 -1.96 4.76 -2.21 38.86 l-0.26 34.69 2.38 -1.02 c1.28 -0.60 2.81 -1.28 3.23 -1.62z"/>
 </g>
 <g fill="#8aab85">
  <path d="M566.29 486.37 l0 -5.95 3.32 0 c3.91 0 4.25 0.60 3.66 7.06 l-0.34 4.85 -3.32 0 -3.32 0 0 -5.95z"/>
  <path d="M520.38 474.89 c0 -10.88 0.09 -11.48 1.70 -11.48 1.62 0 1.70 0.60 1.70 11.48 0 10.88 -0.09 11.48 -1.70 11.48 -1.62 0 -1.70 -0.60 -1.70 -11.48z"/>
  <path d="M577.35 480.07 c0 -2.30 0.43 -2.98 2.04 -3.40 1.19 -0.26 2.21 -1.36 2.55 -2.64 0.43 -1.79 1.02 -2.13 3.49 -2.13 2.72 0 2.98 0.26 2.98 2.38 0 4.17 -4.85 8.67 -9.35 8.67 -1.36 0 -1.70 -0.51 -1.70 -2.89z"/>
  <path d="M650.22 482.37 c-1.02 -0.94 -0.60 -1.96 0.77 -1.96 1.11 0 1.28 -0.51 0.85 -2.30 -0.34 -1.36 -1.19 -2.81 -1.87 -3.32 -2.04 -1.62 -1.36 -2.89 1.62 -2.89 3.91 0 4.85 1.28 4.85 6.55 l0 4.51 -2.81 0 c-1.62 0 -3.15 -0.26 -3.40 -0.60z"/>
  <path d="M735.33 469.53 c-2.81 -1.28 -3.23 -1.87 -3.23 -4.17 0 -2.21 0.34 -2.81 1.70 -2.81 1.79 0 8.50 2.47 8.50 3.15 0 0.77 -2.89 5.36 -3.40 5.27 -0.26 0 -1.87 -0.68 -3.57 -1.45z"/>
  <path d="M603.71 384.59 c0 -34.69 0.09 -35.63 1.79 -38.52 3.06 -4.93 11.31 -12.41 16.92 -15.22 9.44 -4.68 8.67 -7.99 8.33 33.76 -0.26 36.14 -0.26 36.31 -2.30 40.81 -3.74 8.33 -13.18 14.63 -21.94 14.63 l-2.81 0 0 -35.46z"/>
  <path d="M505.07 374.55 c-38.94 -7.06 -66.92 -37.07 -75.42 -80.78 -2.30 -11.73 -2.04 -38.69 0.43 -50.25 5.02 -23.30 14.20 -41.41 28.23 -55.52 9.27 -9.35 14.54 -13.18 25.34 -18.45 16.92 -8.16 30.78 -11.14 48.13 -10.29 15.65 0.77 33.76 6.21 45.41 13.69 l3.66 2.30 -4.59 4.93 c-2.47 2.72 -6.38 7.48 -8.67 10.54 l-4.08 5.61 -5.02 -4.59 c-8.59 -7.91 -22.02 -13.18 -33.84 -13.09 -10.97 0 -26.44 4.59 -34.78 10.37 -16.16 11.05 -27.72 30.27 -32.99 55.01 -2.21 10.29 -2.21 37.41 0 47.45 4.17 18.79 10.97 31.97 23.04 44.05 13.01 13.01 27.80 19.05 46.60 19.05 8.59 -0.09 14.11 -1.11 22.96 -4.51 12.58 -4.76 20.32 -10.63 37.92 -28.31 10.12 -10.20 17.43 -15.65 25 -18.79 12.07 -4.85 16.33 -5.53 38.94 -5.78 19.30 -0.26 25.34 -1.19 34.44 -5.53 13.60 -6.46 23.81 -19.47 28.23 -35.71 2.04 -7.57 2.04 -24.66 0 -32.31 -1.96 -7.57 -7.48 -18.37 -11.65 -23.13 -12.84 -14.71 -34.69 -21.43 -59.95 -18.71 -19.13 2.13 -34.10 8.50 -45.24 19.22 -11.73 11.14 -17.26 21.85 -20.92 40.30 -2.98 14.88 -6.29 19.64 -15.31 22.45 -5.10 1.53 -5.36 0.94 -4.17 -13.52 2.13 -26.44 9.69 -44.56 25.59 -60.97 12.75 -13.18 25 -19.81 46.43 -25.25 6.80 -1.79 9.69 -1.96 26.78 -2.04 18.03 0 19.64 0.17 27.72 2.30 32.91 8.59 51.87 28.23 57.82 59.86 1.87 10.03 1.28 26.78 -1.28 36.48 -5.02 19.13 -18.11 36.31 -34.44 45.49 -8.33 4.59 -20.92 8.50 -33.67 10.29 -2.55 0.34 -12.75 0.68 -22.53 0.68 -28.40 0.09 -30.02 0.85 -54.42 24.74 -14.28 14.03 -18.20 17.35 -27.80 23.21 -2.98 1.87 -14.20 6.29 -18.79 7.48 -14.37 3.57 -30.36 4.34 -43.11 2.04z"/>
  <path d="M603.88 257.89 c0.26 -37.67 0.26 -38.18 2.21 -42.34 2.38 -5.19 6.21 -9.35 10.80 -11.65 3.49 -1.79 12.84 -4.17 13.60 -3.40 0.68 0.68 0.43 84.69 -0.26 85.71 -0.34 0.51 -3.74 1.79 -7.57 2.81 -3.74 0.94 -9.10 2.89 -11.82 4.34 -2.72 1.36 -5.44 2.55 -6.12 2.55 -0.85 0 -1.02 -7.06 -0.85 -38.01z"/>
 </g>
 <g fill="#8aab85">
  <path d="M437.64 491.89 c-10.80 -3.83 -13.43 -17.43 -4.93 -25.51 2.30 -2.13 3.66 -2.64 8.42 -3.06 4.85 -0.43 6.21 -0.26 9.10 1.28 4.08 2.21 4.59 4 1.70 5.95 -2.04 1.36 -2.38 1.36 -3.74 0.17 -3.91 -3.57 -10.80 -2.04 -12.84 2.89 -3.57 8.50 4.93 15.99 12.84 11.31 2.47 -1.45 2.55 -1.45 4.68 0.68 l2.21 2.21 -2.47 1.70 c-2.81 2.04 -7.48 3.66 -9.95 3.66 -1.02 -0.09 -3.23 -0.60 -5.02 -1.28z"/>
  <path d="M495.38 492.32 c-6.38 -2.04 -8.16 -6.21 -8.16 -19.13 l0 -9.78 3.40 0 3.40 0 0 10.03 c0 11.31 0.77 12.92 5.70 12.92 4.59 0 5.36 -1.87 5.36 -12.92 l0 -9.86 2.98 -0.34 c1.70 -0.17 3.23 -0.17 3.40 0.09 0.26 0.17 0.43 5.02 0.43 10.63 0 8.67 -0.26 10.71 -1.70 13.01 -2.98 4.93 -9.10 7.14 -14.80 5.36z"/>
  <path d="M729.12 492.57 c-2.13 -0.43 -8.08 -2.98 -8.08 -3.40 0 -0.85 2.64 -5.36 3.15 -5.36 0.34 0 2.21 0.85 4.34 1.79 2.98 1.53 4.08 1.62 5.78 0.85 4.08 -1.79 2.47 -4.17 -4.51 -6.38 -7.74 -2.55 -10.20 -8.67 -5.78 -14.03 2.89 -3.32 9.35 -4.34 14.71 -2.21 4.17 1.70 4.59 2.55 1.02 2.55 -1.36 0 -2.55 -0.26 -2.55 -0.51 0 -0.26 -0.60 -0.51 -1.28 -0.51 -0.68 0 -1.28 0.34 -1.28 0.77 0 0.34 0.43 0.68 0.94 0.68 0.51 0 0.77 0.51 0.51 1.11 -0.17 0.60 -1.28 0.94 -2.64 0.77 -2.47 -0.34 -4.76 1.02 -4.76 2.81 0 0.60 2.72 2.13 5.95 3.40 6.38 2.47 8.50 4.76 8.50 9.35 0 3.49 -1.53 5.53 -5.36 7.31 -3.49 1.53 -5.27 1.79 -8.67 1.02z"/>
  <path d="M461.71 477.61 l0 -14.71 2.98 0 2.89 0 0.26 11.56 0.26 11.48 6.63 0.26 6.55 0.26 0 2.89 0 2.98 -9.78 0 -9.78 0 0 -14.71z"/>
  <path d="M520.63 477.86 l0.17 -14.45 8.16 0 c6.89 0 8.50 0.26 10.29 1.70 2.72 2.13 3.40 5.53 1.87 9.27 -1.11 2.55 -1.02 2.98 0.51 4.93 1.87 2.38 2.21 6.21 0.85 8.84 -1.70 3.06 -5.36 4.17 -13.94 4.17 l-7.99 0 0.09 -14.45z m13.69 8.50 c1.53 -0.60 2.21 -1.45 2.21 -2.89 0 -2.38 -1.36 -3.06 -6.04 -3.06 -3.23 0 -3.32 0.09 -3.32 2.89 0 3.66 2.72 4.76 7.14 3.06z m0.43 -13.09 c2.13 -2.64 -1.36 -5.44 -5.53 -4.42 -1.62 0.43 -2.04 1.11 -2.04 3.06 0 2.38 0.17 2.55 3.32 2.55 1.79 0 3.74 -0.51 4.25 -1.19z"/>
  <path d="M566.29 478.03 l0 -14.63 4.51 -0.17 c10.37 -0.43 14.37 0.68 16.33 4.51 1.96 3.74 1.53 10.97 -0.60 10.97 -0.51 0 -0.60 -0.94 -0.34 -2.13 0.34 -1.19 0.34 -2.13 0.17 -2.13 -0.43 0 -6.46 5.95 -6.46 6.38 0 0.17 0.85 0.09 1.96 -0.26 1.70 -0.43 1.79 -0.34 0.68 0.94 -0.68 0.85 -2.38 1.45 -4.25 1.45 -4.08 0 -5.19 1.19 -5.19 5.78 0 2.21 -0.34 3.49 -0.85 3.15 -0.43 -0.26 -0.85 -1.79 -0.85 -3.40 0 -6.46 -2.81 -7.82 -3.23 -1.53 -0.09 2.21 -0.60 4.42 -1.02 4.85 -0.60 0.60 -0.85 -4.25 -0.85 -13.77z m13.94 -1.53 c1.87 -0.68 1.87 -5.95 0 -6.63 -0.77 -0.26 -2.64 -0.51 -4.25 -0.51 -2.89 0 -2.89 0 -2.89 3.83 0 3.83 0 3.83 2.89 3.83 1.62 0 3.49 -0.26 4.25 -0.51z"/>
  <path d="M595.20 477.35 l0 -14.88 3.23 0.26 3.15 0.26 0.26 14.71 0.17 14.63 -3.40 0 -3.40 0 0 -14.97z"/>
  <path d="M611.53 478.12 l0.26 -14.28 2.72 -0.26 2.72 -0.26 0.26 11.31 0.26 11.31 6.63 0.26 6.55 0.26 0 2.89 0 2.98 -9.78 0 -9.78 0 0.17 -14.20z"/>
  <path d="M635.59 490.02 c0.77 -3.15 8.93 -22.87 10.12 -24.49 0.51 -0.77 2.30 -1.53 3.91 -1.79 l2.98 -0.51 5.27 12.41 c2.98 6.89 5.53 13.35 5.87 14.54 0.51 2.04 0.34 2.13 -2.89 2.13 -3.15 0 -3.49 -0.26 -4.42 -2.98 l-1.02 -3.06 -6.04 0.26 c-6.04 0.26 -6.04 0.26 -6.89 3.06 -0.68 2.47 -1.02 2.72 -4.17 2.72 -3.23 0 -3.32 -0.09 -2.72 -2.30z m18.28 -11.82 c0 -2.13 -1.11 -3.15 -3.91 -3.49 -1.45 -0.26 -2.13 0.34 -2.81 2.38 -0.51 1.53 -0.94 2.89 -0.94 3.06 0 0.17 1.70 0.26 3.83 0.17 3.32 -0.17 3.83 -0.51 3.83 -2.13z"/>
  <path d="M673.26 481.09 l-0.26 -11.31 -4.42 -0.26 c-4.51 -0.26 -4.51 -0.26 -4.51 -3.15 l0 -2.89 11.90 -0.26 11.90 -0.26 0 3.15 0 3.15 -4 0.26 -4.08 0.26 -0.26 11.31 -0.26 11.22 -2.89 0 -2.89 0 -0.26 -11.22z"/>
  <path d="M694.86 478.12 l0.26 -14.28 10.03 -0.26 10.03 -0.26 -0.26 2.81 -0.26 2.81 -6.55 0.26 -6.63 0.26 0 2.47 0 2.55 5.95 0 5.95 0 0 2.98 0 2.89 -5.70 0.26 -5.78 0.26 -0.26 2.72 -0.26 2.72 7.06 0.26 7.06 0.26 0.26 2.81 0.26 2.72 -10.71 0 -10.63 0 0.17 -14.20z"/>
  <path d="M561.62 225.24 c-0.26 -0.77 0.09 -2.89 0.94 -4.68 1.87 -4.17 2.55 -2.04 0.85 2.64 -0.85 2.55 -1.36 3.06 -1.79 2.04z"/>
 </g>
</svg>